# 3ds Max Wavefront OBJ Exporter v0.99 - (c)2007 guruware
# File Created: 05.04.2022 01:33:36

mtllib cubito.mtl

#
# object Box001
#

v  -16.1667 0.0000 23.3023
v  -16.1667 0.0000 -15.4772
v  20.4908 0.0000 -15.4772
v  20.4908 0.0000 23.3023
v  -16.1667 44.1216 23.3023
v  20.4908 44.1216 23.3023
v  20.4908 44.1216 -15.4772
v  -16.1667 44.1216 -15.4772
# 8 vertices

vn -0.5774 -0.5774 0.5774
vn -0.5774 -0.5774 -0.5774
vn 0.5774 -0.5774 -0.5774
vn 0.5774 -0.5774 0.5774
vn -0.5774 0.5774 0.5774
vn 0.5774 0.5774 0.5774
vn 0.5774 0.5774 -0.5774
vn -0.5774 0.5774 -0.5774
# 8 vertex normals

vt 1.0000 0.0000 0.0000
vt 1.0000 1.0000 0.0000
vt 0.0000 1.0000 0.0000
vt 0.0000 0.0000 0.0000
# 4 texture coords

o Box001
g Box001
usemtl Material__41
s 2
f 1/1/1 2/2/2 3/3/3 4/4/4 
usemtl Material__40
s 4
f 5/4/5 6/1/6 7/2/7 8/3/8 
usemtl Material__44
s 8
f 1/4/1 4/1/4 6/2/6 5/3/5 
usemtl Material__43
s 16
f 4/4/4 3/1/3 7/2/7 6/3/6 
usemtl Material__45
s 32
f 3/4/3 2/1/2 8/2/8 7/3/7 
usemtl Material__42
s 64
f 2/4/2 1/1/1 5/2/5 8/3/8 
# 6 polygons

