# 3ds Max Wavefront OBJ Exporter v0.97b - (c)2007 guruware
# File Created: 12.05.2022 01:44:00

mtllib arbusto1.mtl

#
# object NaturePack_Bush1
#

v  0.0438 0.0202 -0.0163
v  0.5638 -0.0627 0.3340
v  -0.1609 -0.0480 0.5970
v  0.9285 0.0902 0.5907
v  1.0838 -0.0030 -0.3347
v  -0.6043 -0.0649 -0.0154
v  -0.1602 -0.0649 -0.6267
v  0.5638 -0.0816 -0.5775
v  1.2066 0.6053 0.0002
v  -0.3242 0.1630 1.0177
v  0.3597 0.0440 0.9750
v  -0.0584 0.8433 1.1764
v  -1.0776 0.0789 -0.0288
v  -0.8031 0.0440 0.5972
v  -1.1915 0.6235 0.3279
v  -0.3220 0.0789 -1.0688
v  -0.8606 0.0051 -0.6608
v  -0.9113 0.5005 -1.1410
v  0.9285 -0.0536 -1.1051
v  0.3652 -0.0172 -1.0745
v  0.7624 0.5059 -1.4729
v  0.7423 0.6447 0.9700
v  -0.7770 0.8433 0.9429
v  -1.3554 0.5005 -0.5297
v  -0.0048 0.5760 -1.2790
v  1.2066 0.4180 -1.2607
v  0.2620 1.5297 0.9880
v  0.8657 1.3984 0.5163
v  0.1406 2.3163 0.5641
v  -0.9865 1.4732 0.5754
v  -0.4806 1.8619 0.9094
v  -0.5791 2.2527 0.3312
v  -1.2617 1.0067 -0.9035
v  -1.2577 1.2606 -0.1615
v  -0.6033 1.9845 -0.4658
v  0.3639 1.3047 -1.2090
v  -0.5168 1.2503 -1.1558
v  0.2418 2.1879 -0.6909
v  1.1373 1.3057 -0.5115
v  0.8852 1.5878 -0.9673
v  0.6866 2.2057 -0.0792
v  0.0240 2.5773 -0.0348
# 42 vertices

vn -0.0683 -0.9888 -0.1327
vn 0.2944 -0.9447 0.1446
vn 0.1298 -0.9893 -0.0666
vn 0.1297 -0.9871 0.0943
vn -0.0329 -0.9883 0.1488
vn 0.9379 -0.2921 0.1869
vn 0.0200 -0.2344 0.9719
vn -0.8455 -0.4049 0.3482
vn -0.3939 -0.6602 -0.6395
vn -0.0810 -0.5642 -0.8216
vn 0.9021 0.0077 0.4315
vn -0.3075 -0.1005 0.9462
vn -0.9145 -0.3374 0.2232
vn -0.1160 -0.3231 -0.9392
vn 0.3084 -0.4570 -0.8343
vn 0.6091 0.4470 0.6551
vn -0.7115 0.5200 0.4726
vn -0.7673 0.6079 -0.2040
vn -0.0829 0.4957 -0.8645
vn 0.8499 0.5023 -0.1594
vn 0.4413 0.8283 -0.3451
vn 0.5252 0.7491 -0.4038
vn 0.1148 0.5144 -0.8498
vn -0.3319 0.7588 -0.5604
vn -0.3379 0.6231 -0.7054
vn -0.4255 0.5926 -0.6840
vn -0.5709 0.7832 -0.2462
vn -0.7664 0.6155 -0.1838
vn -0.8506 0.4977 0.1694
vn -0.2153 0.8792 0.4250
vn -0.2539 0.7808 0.5709
vn 0.1257 0.4855 0.8651
vn 0.4848 0.8325 0.2683
vn 0.6928 0.5212 0.4983
vn 0.9109 0.3560 0.2087
vn 0.8987 0.3217 -0.2981
vn 0.4594 0.3328 -0.8235
vn 0.2004 0.3961 -0.8961
vn -0.0678 0.1293 -0.9893
vn -0.1552 0.0622 -0.9859
vn -0.3667 0.1749 -0.9137
vn -0.9878 0.1492 -0.0458
vn -0.9825 0.0380 0.1824
vn -0.9417 0.1378 0.3068
vn -0.6467 0.2123 0.7326
vn -0.3068 0.1203 0.9441
vn 0.0136 0.2588 0.9658
vn 0.6252 0.3249 0.7096
vn 0.8983 0.1092 0.4256
vn 0.9397 0.2574 0.2252
vn -0.2224 0.2041 -0.9534
vn -0.2572 -0.4543 -0.8529
vn -0.0578 -0.3573 -0.9322
vn -0.7782 -0.2733 -0.5654
vn -0.6775 -0.5465 -0.4922
vn -0.7193 -0.6740 -0.1683
vn -0.8354 0.0419 0.5480
vn -0.7653 -0.2343 0.5995
vn -0.5841 -0.3061 0.7518
vn 0.2779 0.1315 0.9516
vn 0.2170 -0.1302 0.9674
vn 0.5451 -0.3409 0.7659
vn 0.9960 0.0888 -0.0132
vn 0.9762 -0.2145 0.0319
vn 0.8340 -0.5356 -0.1330
vn -0.0695 -0.9925 -0.1008
vn -0.0146 -0.9923 -0.1227
vn -0.1359 -0.9557 -0.2612
vn -0.0819 -0.9562 -0.2811
vn -0.0959 -0.9930 -0.0697
vn -0.2910 -0.9566 0.0118
vn -0.2919 -0.9535 0.0748
vn -0.1406 -0.9816 0.1289
vn -0.1296 -0.9056 0.4038
vn 0.1317 -0.9905 0.0384
vn 0.1400 -0.9899 0.0205
vn -0.1709 -0.9851 0.0204
vn -0.1324 -0.9057 0.4027
vn 0.0445 -0.9830 0.1779
vn 0.2332 -0.9445 0.2316
# 80 vertex normals

vt 0.4716 0.2077 0.0000
vt 0.5454 0.2574 0.0000
vt 0.4425 0.2947 0.0000
vt 0.5971 0.2938 0.0000
vt 0.6191 0.1625 0.0000
vt 0.3796 0.2078 0.0000
vt 0.4426 0.1211 0.0000
vt 0.5454 0.1281 0.0000
vt 0.3273 0.3882 0.0000
vt 0.4587 0.3750 0.0000
vt 0.4111 0.4613 0.0000
vt 0.1159 0.3847 0.0000
vt 0.2129 0.3678 0.0000
vt 0.1536 0.4812 0.0000
vt 0.1587 0.0115 0.0000
vt 0.2476 0.0065 0.0000
vt 0.2094 0.0887 0.0000
vt 0.4196 0.0584 0.0000
vt 0.3432 0.1162 0.0000
vt 0.3360 0.0481 0.0000
vt 0.5971 0.0532 0.0000
vt 0.5172 0.0575 0.0000
vt 0.5735 0.0010 0.0000
vt 0.2735 0.4669 0.0000
vt 0.0516 0.4812 0.0000
vt 0.0877 0.0713 0.0000
vt 0.8931 0.5732 0.0000
vt 0.8333 0.6568 0.0000
vt 0.8226 0.5282 0.0000
vt 0.9119 0.3957 0.0000
vt 0.8325 0.4193 0.0000
vt 0.8450 0.3563 0.0000
vt 0.2710 0.5925 0.0000
vt 0.3379 0.5739 0.0000
vt 0.3311 0.7041 0.0000
vt 0.2445 0.2093 0.0000
vt 0.2919 0.2645 0.0000
vt 0.2098 0.3199 0.0000
vt 0.0346 0.1431 0.0000
vt 0.1399 0.1792 0.0000
vt 0.0967 0.2819 0.0000
vt 0.7192 0.4758 0.0000
vt 0.7269 0.6008 0.0000
vt 0.5938 0.4932 0.0000
vt 0.4838 0.5607 0.0000
vt 0.5484 0.6007 0.0000
vt 0.4224 0.6884 0.0000
vt 0.2774 0.8462 0.0000
vt 0.2143 0.9330 0.0000
vt 0.1834 0.8399 0.0000
vt 0.5092 0.6859 0.0000
vt 0.6790 0.4019 0.0000
vt 0.0943 0.9011 0.0000
vt 0.1066 0.9990 0.0000
vt 0.0009 0.9632 0.0000
vt 0.1579 0.3660 0.0000
vt 0.0978 0.7880 0.0000
vt 0.1999 0.7549 0.0000
vt 0.1117 0.7059 0.0000
vt 0.0937 0.6258 0.0000
vt 0.1990 0.5786 0.0000
vt 0.1818 0.6903 0.0000
vt 0.5901 0.4347 0.0000
vt 0.7615 0.7065 0.0000
vt 0.2966 0.1199 0.0000
vt 0.9068 0.4756 0.0000
vt 0.0009 0.0713 0.0000
vt 0.0691 0.0010 0.0000
vt 0.3072 0.0234 0.0000
vt 0.2672 0.4531 0.0000
vt 0.2728 0.3817 0.0000
vt 0.5680 0.3678 0.0000
vt 0.3124 0.2059 0.0000
vt 0.3514 0.2948 0.0000
vt 0.4193 0.3544 0.0000
vt 0.5164 0.3484 0.0000
# 76 texture coords

o NaturePack_Bush1
g NaturePack_Bush1
usemtl Material__35
f 1/1/1 2/2/1 3/3/1 
f 4/4/2 2/2/2 5/5/2 
f 1/1/3 3/3/3 6/6/3 
f 1/1/4 6/6/4 7/7/4 
f 1/1/5 7/7/5 8/8/5 
f 4/9/6 5/10/6 9/11/6 
f 10/12/7 11/13/7 12/14/7 
f 13/15/8 14/16/8 15/17/8 
f 16/18/9 17/19/9 18/20/9 
f 19/21/10 20/22/10 21/23/10 
f 4/9/11 9/11/11 22/24/11 
f 10/12/12 12/14/12 23/25/12 
f 13/15/13 15/17/13 24/26/13 
f 16/27/14 18/28/14 25/29/14 
f 19/30/15 21/31/15 26/32/15 
f 27/33/16 28/34/16 29/35/16 
f 30/36/17 31/37/17 32/38/17 
f 33/39/18 34/40/18 35/41/18 
f 36/42/19 37/43/19 38/44/19 
f 39/45/20 40/46/20 41/47/20 
f 41/48/21 38/49/21 42/50/21 
f 41/47/22 40/46/22 38/51/22 
f 40/52/23 36/42/23 38/44/23 
f 38/49/24 35/53/24 42/50/24 
f 38/49/25 37/54/25 35/53/25 
f 37/54/26 33/55/26 35/53/26 
f 35/41/27 32/38/27 42/56/27 
f 35/41/28 34/40/28 32/38/28 
f 34/40/29 30/36/29 32/38/29 
f 32/57/30 29/58/30 42/50/30 
f 32/57/31 31/59/31 29/58/31 
f 31/60/32 27/61/32 29/62/32 
f 29/58/33 41/48/33 42/50/33 
f 29/35/34 28/34/34 41/47/34 
f 28/34/35 39/45/35 41/47/35 
f 26/63/36 40/46/36 39/45/36 
f 26/32/37 21/31/37 40/52/37 
f 21/31/38 36/42/38 40/52/38 
f 25/29/39 37/43/39 36/42/39 
f 25/29/40 18/28/40 37/43/40 
f 18/28/41 33/64/41 37/43/41 
f 24/26/42 34/40/42 33/39/42 
f 24/26/43 15/17/43 34/40/43 
f 15/17/44 30/36/44 34/40/44 
f 23/65/45 31/37/45 30/36/45 
f 23/25/46 12/14/46 31/60/46 
f 12/14/47 27/61/47 31/60/47 
f 22/24/48 28/34/48 27/33/48 
f 22/24/49 9/11/49 28/34/49 
f 9/11/50 39/45/50 28/34/50 
f 21/31/51 25/29/51 36/42/51 
f 21/31/52 20/66/52 25/29/52 
f 20/66/53 16/27/53 25/29/53 
f 18/67/54 24/26/54 33/39/54 
f 18/67/55 17/68/55 24/26/55 
f 17/68/56 13/15/56 24/26/56 
f 15/17/57 23/65/57 30/36/57 
f 15/17/58 14/16/58 23/65/58 
f 14/16/59 10/69/59 23/65/59 
f 12/14/60 22/70/60 27/61/60 
f 12/14/61 11/13/61 22/70/61 
f 11/71/62 4/9/62 22/24/62 
f 9/11/63 26/63/63 39/45/63 
f 9/11/64 5/10/64 26/63/64 
f 5/10/65 19/72/65 26/63/65 
f 8/8/66 20/22/66 19/21/66 
f 8/8/67 7/7/67 20/22/67 
f 7/7/68 16/18/68 20/22/68 
f 7/7/69 17/19/69 16/18/69 
f 7/7/70 6/6/70 17/19/70 
f 6/6/71 13/73/71 17/19/71 
f 6/6/72 14/74/72 13/73/72 
f 6/6/73 3/3/73 14/74/73 
f 3/3/74 10/75/74 14/74/74 
f 5/5/75 8/8/75 19/21/75 
f 5/5/76 2/2/76 8/8/76 
f 2/2/77 1/1/77 8/8/77 
f 3/3/78 11/76/78 10/75/78 
f 3/3/79 2/2/79 11/76/79 
f 2/2/80 4/4/80 11/76/80 
# 0 polygons - 80 triangles

