# 3ds Max Wavefront OBJ Exporter v0.97b - (c)2007 guruware
# File Created: 12.05.2022 01:46:41

mtllib pasto.mtl

#
# object NaturePack_Grass1
#

v  -0.0494 0.4539 0.0094
v  -0.1057 0.4539 0.0072
v  -0.0993 0.0018 0.0271
v  -0.0194 0.0018 0.0264
v  -0.1090 0.4539 -0.0491
v  -0.1000 0.0018 -0.0529
v  -0.0697 0.4539 -0.0303
v  -0.0200 0.0018 -0.0536
v  -0.0981 0.9187 -0.0165
v  -0.0958 0.9187 -0.0414
v  -0.0712 0.9187 -0.0439
v  -0.0774 1.1924 -0.1364
v  -0.0744 0.9187 -0.0199
v  -0.0366 -0.0071 0.1104
v  0.0207 -0.0071 0.0763
v  0.0568 0.3689 0.1625
v  0.0159 0.3689 0.1869
v  -0.0074 0.3832 0.1479
v  -0.0707 -0.0071 0.0531
v  -0.0134 -0.0071 0.0190
v  0.0335 0.3832 0.1235
v  0.0932 0.6079 0.2943
v  0.1008 0.5881 0.3071
v  0.1144 0.6079 0.2816
v  0.2006 0.6662 0.4503
v  0.1221 0.5881 0.2944
v  -0.1558 -0.0196 -0.0428
v  -0.1299 -0.0229 0.0186
v  -0.2682 0.3334 0.0823
v  -0.2867 0.3358 0.0384
v  -0.2471 0.3572 0.0229
v  -0.0949 -0.0088 -0.0678
v  -0.2286 0.3548 0.0667
v  -0.0691 -0.0122 -0.0065
v  -0.4335 0.5494 0.1246
v  -0.4446 0.5275 0.1280
v  -0.4239 0.5481 0.1474
v  -0.6088 0.5757 0.2134
v  -0.4349 0.5263 0.1508
v  -0.1368 0.2463 -0.0907
v  -0.1406 0.2463 -0.0605
v  -0.1296 0.0018 -0.0630
v  -0.1263 0.0018 -0.1062
v  -0.1711 0.2463 -0.0613
v  -0.1727 0.0018 -0.0663
v  -0.1591 0.2463 -0.0816
v  -0.1694 0.0018 -0.1094
v  -0.1530 0.4976 -0.0657
v  -0.1663 0.4976 -0.0680
v  -0.1666 0.4976 -0.0814
v  -0.2167 0.6457 -0.0824
v  -0.1538 0.4976 -0.0786
v  0.1116 0.3502 0.0545
v  0.0819 -0.0026 0.0548
v  0.0822 -0.0008 -0.0152
v  0.1118 0.3515 0.0042
v  0.0722 0.3551 0.0544
v  0.0270 0.0043 0.0548
v  0.0273 0.0062 -0.0153
v  0.0724 0.3565 0.0042
v  0.0802 0.6635 0.0216
v  0.0801 0.6627 0.0536
v  0.0800 0.8127 0.0313
v  0.0980 0.8351 0.0320
v  0.1035 0.6744 0.0219
v  0.1033 0.6735 0.0540
v  0.0799 0.8122 0.0518
v  0.1185 0.9949 0.0466
v  0.0979 0.8346 0.0525
v  -0.0019 -0.0073 -0.1240
v  0.0866 0.2836 -0.1587
v  0.1095 0.2816 -0.1289
v  0.0302 -0.0102 -0.0823
v  0.0820 0.2951 -0.1070
v  -0.0114 -0.0069 -0.0501
v  0.0592 0.2971 -0.1368
v  -0.0435 -0.0040 -0.0918
v  0.2097 0.4475 -0.2059
v  0.2017 0.4637 -0.1987
v  0.1898 0.4648 -0.2141
v  0.3174 0.5009 -0.2973
v  0.1978 0.4485 -0.2214
v  -0.0726 0.2027 -0.2457
v  -0.0587 -0.0156 -0.1231
v  -0.0992 -0.0097 -0.1093
v  -0.1015 0.2069 -0.2359
v  -0.0621 0.2191 -0.2218
v  -0.0438 -0.0045 -0.0841
v  -0.0910 0.2233 -0.2120
v  -0.0843 0.0014 -0.0703
v  -0.1063 0.3153 -0.3698
v  -0.1025 0.3300 -0.3648
v  -0.1175 0.3322 -0.3597
v  -0.1506 0.3360 -0.4836
v  -0.1214 0.3175 -0.3647
v  -0.0823 -0.0036 0.1144
v  -0.1038 0.1758 0.1652
v  -0.1288 0.1765 0.1552
v  -0.1182 -0.0026 0.1002
v  -0.1189 0.1803 0.1305
v  -0.1039 0.0029 0.0647
v  -0.0939 0.1796 0.1404
v  -0.0680 0.0019 0.0790
v  -0.1159 0.3325 0.1479
v  -0.1099 0.3348 0.1330
v  -0.0948 0.3344 0.1390
v  -0.1328 0.4775 0.1668
v  -0.1008 0.3321 0.1539
# 108 vertices

vn -0.0115 0.0403 0.9991
vn -0.9994 -0.0164 0.0295
vn 0.1504 0.0393 -0.9878
vn 0.9812 0.0878 -0.1719
vn 0.0000 -1.0000 -0.0000
vn -0.9997 0.0224 0.0125
vn -0.0983 -0.3204 -0.9422
vn 0.2468 -0.0092 -0.9690
vn 0.0142 0.0572 0.9983
vn 0.9658 0.0155 -0.2587
vn 0.1303 0.3894 0.9118
vn 0.9890 0.0669 0.1321
vn -0.9951 0.0350 -0.0927
vn 0.4973 -0.2389 0.8340
vn -0.8579 0.0148 0.5137
vn -0.4916 0.2799 -0.8246
vn 0.8606 0.0333 -0.5082
vn 0.0000 -1.0000 0.0000
vn -0.8476 0.0365 0.5293
vn -0.1509 0.9556 -0.2532
vn -0.4020 0.6194 -0.6743
vn 0.4255 -0.5563 0.7138
vn 0.8687 0.0365 -0.4940
vn 0.2095 -0.9125 0.3513
vn 0.8842 0.0400 -0.4655
vn -0.8299 0.0400 0.5565
vn -0.8550 -0.3924 0.3390
vn -0.3917 0.0651 -0.9178
vn 0.8397 0.4310 -0.3304
vn 0.3797 -0.0186 0.9249
vn 0.1296 -0.9855 -0.1091
vn -0.4113 0.0834 -0.9077
vn 0.1451 0.9894 -0.0066
vn 0.6360 0.7374 -0.2276
vn -0.6861 -0.6825 0.2517
vn 0.3643 -0.0181 0.9311
vn -0.2550 -0.9654 0.0542
vn 0.3338 -0.0199 0.9424
vn -0.4408 0.0815 -0.8939
vn 0.9946 0.0403 0.0961
vn -0.0553 -0.0164 0.9983
vn -0.9716 0.0393 -0.2335
vn -0.0882 0.0877 -0.9922
vn -0.0721 0.0224 0.9971
vn -0.9471 -0.3204 0.0182
vn -0.9447 -0.0092 -0.3279
vn 0.9959 0.0572 0.0704
vn -0.1761 0.0155 -0.9843
vn 0.9196 0.3894 -0.0527
vn 0.2154 0.0669 -0.9742
vn -0.1766 0.0350 0.9837
vn 0.9965 -0.0838 0.0021
vn -0.0068 0.0021 1.0000
vn -0.0041 0.0016 1.0000
vn -0.0009 0.0011 1.0000
vn -0.9918 0.1278 -0.0009
vn 0.0079 0.0545 -0.9985
vn 0.0047 0.0551 -0.9985
vn 0.0019 0.0555 -0.9985
vn -0.1249 -0.9918 -0.0271
vn -0.9997 0.0257 -0.0037
vn -0.0249 0.0630 -0.9977
vn 0.9997 0.0256 0.0051
vn 0.9995 0.0296 0.0052
vn 0.0017 0.0556 -0.9985
vn -0.0071 0.0021 1.0000
vn -0.9784 0.2067 0.0012
vn -0.0336 0.0096 0.9994
vn -1.0000 -0.0014 -0.0044
vn 0.9994 0.0338 0.0053
vn 0.9919 -0.1273 0.0009
vn -0.0900 0.1024 -0.9907
vn -0.0987 0.0493 0.9939
vn 0.7472 -0.2981 -0.5939
vn 0.6106 -0.0397 0.7910
vn -0.7352 0.3383 0.5874
vn -0.6015 0.0872 -0.7941
vn -0.0821 -0.9966 -0.0053
vn 0.6267 -0.0192 0.7790
vn -0.1543 0.9706 0.1850
vn -0.5691 0.6658 0.4825
vn 0.6106 -0.6057 -0.5102
vn -0.5882 0.0894 -0.8038
vn 0.2481 -0.9347 -0.2545
vn -0.5615 0.0908 -0.8225
vn 0.6517 -0.0177 0.7583
vn -0.3447 -0.4765 -0.8088
vn 0.9377 -0.1230 -0.3251
vn 0.3427 0.5129 0.7871
vn -0.9373 0.1675 0.3056
vn -0.0421 -0.9572 0.2864
vn 0.9314 -0.1070 -0.3479
vn 0.1418 0.9899 -0.0074
vn 0.2967 0.7932 0.5318
vn -0.3098 -0.7445 -0.5914
vn -0.9425 0.1663 0.2898
vn -0.1794 -0.9778 -0.1082
vn -0.9523 0.1612 0.2592
vn 0.9191 -0.1117 -0.3778
vn -0.3604 -0.2937 0.8853
vn -0.9293 0.0585 -0.3647
vn -0.9293 0.0568 -0.3650
vn 0.3545 0.3513 -0.8665
vn 0.9275 0.0056 0.3739
vn 0.9273 0.0073 0.3741
vn 0.0289 -0.9896 -0.1413
vn -0.9293 0.0603 -0.3645
vn 0.3625 0.2691 -0.8923
vn 0.3696 -0.0063 -0.9292
vn -0.3670 0.0741 0.9273
vn 0.9272 0.0091 0.3744
vn -0.3687 -0.1621 0.9153
vn 0.9060 0.1647 0.3899
vn -0.9230 -0.0583 -0.3803
# 114 vertex normals

vt 0.0266 0.2072 0.0000
vt 0.0009 0.2072 0.0000
vt 0.0038 0.0010 0.0000
vt 0.0403 0.0010 0.0000
vt 0.1111 0.2072 0.0000
vt 0.0854 0.2072 0.0000
vt 0.0837 0.0010 0.0000
vt 0.1201 0.0010 0.0000
vt 0.1293 0.5440 0.0000
vt 0.1253 0.3378 0.0000
vt 0.1432 0.3378 0.0000
vt 0.1658 0.5440 0.0000
vt 0.1716 0.0010 0.0000
vt 0.2080 0.0010 0.0000
vt 0.1974 0.2072 0.0000
vt 0.1793 0.2072 0.0000
vt 0.6326 0.7710 0.0000
vt 0.6323 0.7346 0.0000
vt 0.6688 0.7343 0.0000
vt 0.6691 0.7707 0.0000
vt 0.1003 0.4192 0.0000
vt 0.0889 0.4192 0.0000
vt 0.1425 0.1258 0.0000
vt 0.1313 0.1258 0.0000
vt 0.1397 0.0010 0.0000
vt 0.0044 0.4192 0.0000
vt 0.0152 0.4192 0.0000
vt 0.1927 0.4192 0.0000
vt 0.2036 0.4192 0.0000
vt 0.0139 0.5440 0.0000
vt 0.2458 0.5440 0.0000
vt 0.0456 0.5440 0.0000
vt 0.4335 0.0010 0.0000
vt 0.4597 0.0010 0.0000
vt 0.4761 0.1725 0.0000
vt 0.4574 0.1725 0.0000
vt 0.4468 0.1790 0.0000
vt 0.4180 0.0010 0.0000
vt 0.5404 0.7613 0.0000
vt 0.5143 0.7613 0.0000
vt 0.5432 0.5833 0.0000
vt 0.5618 0.5833 0.0000
vt 0.6948 0.1790 0.0000
vt 0.6770 0.1725 0.0000
vt 0.7164 0.0010 0.0000
vt 0.7425 0.0010 0.0000
vt 0.7164 0.7336 0.0000
vt 0.7425 0.7180 0.0000
vt 0.7581 0.7441 0.0000
vt 0.7320 0.7597 0.0000
vt 0.4927 0.2815 0.0000
vt 0.4962 0.2725 0.0000
vt 0.6217 0.6603 0.0000
vt 0.6120 0.6545 0.0000
vt 0.6610 0.5833 0.0000
vt 0.5848 0.7324 0.0000
vt 0.5662 0.7212 0.0000
vt 0.7049 0.6508 0.0000
vt 0.6662 0.5960 0.0000
vt 0.6849 0.5849 0.0000
vt 0.7146 0.6450 0.0000
vt 0.6227 0.2815 0.0000
vt 0.6169 0.2725 0.0000
vt 0.7505 0.7161 0.0000
vt 0.5458 0.3081 0.0000
vt 0.5417 0.3081 0.0000
vt 0.2709 0.4594 0.0000
vt 0.2989 0.4578 0.0000
vt 0.3279 0.6203 0.0000
vt 0.3079 0.6214 0.0000
vt 0.6718 0.5814 0.0000
vt 0.6121 0.4194 0.0000
vt 0.6301 0.4096 0.0000
vt 0.6995 0.5765 0.0000
vt 0.4613 0.4585 0.0000
vt 0.4199 0.6255 0.0000
vt 0.3999 0.6244 0.0000
vt 0.4333 0.4570 0.0000
vt 0.8768 0.4822 0.0000
vt 0.8588 0.4724 0.0000
vt 0.9218 0.3099 0.0000
vt 0.9496 0.3149 0.0000
vt 0.6730 0.7298 0.0000
vt 0.7010 0.7180 0.0000
vt 0.7125 0.7458 0.0000
vt 0.6845 0.7576 0.0000
vt 0.5451 0.3219 0.0000
vt 0.5401 0.3319 0.0000
vt 0.8350 0.7045 0.0000
vt 0.8454 0.7089 0.0000
vt 0.8049 0.7888 0.0000
vt 0.3735 0.7131 0.0000
vt 0.3631 0.7125 0.0000
vt 0.3592 0.7083 0.0000
vt 0.3488 0.7089 0.0000
vt 0.7878 0.5704 0.0000
vt 0.7827 0.5604 0.0000
vt 0.7620 0.7089 0.0000
vt 0.7724 0.7045 0.0000
vt 0.8010 0.7838 0.0000
vt 0.7035 0.5830 0.0000
vt 0.4652 0.3099 0.0000
vt 0.7615 0.1125 0.0000
vt 0.7477 0.1125 0.0000
vt 0.7488 0.0010 0.0000
vt 0.7685 0.0010 0.0000
vt 0.8083 0.1125 0.0000
vt 0.7944 0.1125 0.0000
vt 0.7937 0.0010 0.0000
vt 0.8134 0.0010 0.0000
vt 0.8378 0.0010 0.0000
vt 0.8401 0.1125 0.0000
vt 0.8308 0.1125 0.0000
vt 0.8181 0.0010 0.0000
vt 0.8805 0.1832 0.0000
vt 0.8853 0.2947 0.0000
vt 0.8656 0.2947 0.0000
vt 0.8703 0.1832 0.0000
vt 0.4859 0.9188 0.0000
vt 0.4874 0.8991 0.0000
vt 0.5071 0.9006 0.0000
vt 0.5056 0.9203 0.0000
vt 0.8027 0.2271 0.0000
vt 0.7966 0.2271 0.0000
vt 0.8309 0.2271 0.0000
vt 0.8370 0.2271 0.0000
vt 0.8305 0.2947 0.0000
vt 0.7560 0.2271 0.0000
vt 0.7501 0.2271 0.0000
vt 0.8669 0.0685 0.0000
vt 0.8727 0.0685 0.0000
vt 0.7577 0.2947 0.0000
vt 0.8440 0.0010 0.0000
vt 0.7736 0.2947 0.0000
vt 0.2514 0.1619 0.0000
vt 0.2512 0.0010 0.0000
vt 0.2832 0.0019 0.0000
vt 0.2743 0.1625 0.0000
vt 0.3269 0.1619 0.0000
vt 0.3089 0.1642 0.0000
vt 0.2883 0.0042 0.0000
vt 0.3133 0.0010 0.0000
vt 0.3809 0.0019 0.0000
vt 0.4128 0.0010 0.0000
vt 0.4127 0.1610 0.0000
vt 0.3898 0.1616 0.0000
vt 0.3346 0.4519 0.0000
vt 0.3552 0.2922 0.0000
vt 0.3731 0.2944 0.0000
vt 0.3597 0.4551 0.0000
vt 0.5909 0.7343 0.0000
vt 0.5907 0.7662 0.0000
vt 0.5656 0.7662 0.0000
vt 0.5658 0.7343 0.0000
vt 0.3977 0.3017 0.0000
vt 0.4123 0.3013 0.0000
vt 0.3586 0.0841 0.0000
vt 0.3668 0.0739 0.0000
vt 0.3693 0.1472 0.0000
vt 0.3587 0.1521 0.0000
vt 0.2662 0.3097 0.0000
vt 0.2516 0.3094 0.0000
vt 0.3125 0.3044 0.0000
vt 0.3231 0.3094 0.0000
vt 0.4021 0.3697 0.0000
vt 0.4115 0.3694 0.0000
vt 0.4091 0.4528 0.0000
vt 0.3124 0.3726 0.0000
vt 0.3206 0.3828 0.0000
vt 0.2617 0.3830 0.0000
vt 0.2523 0.3828 0.0000
vt 0.2550 0.4559 0.0000
vt 0.3762 0.0010 0.0000
vt 0.3300 0.4559 0.0000
vt 0.1879 0.5472 0.0000
vt 0.2038 0.6799 0.0000
vt 0.1902 0.6790 0.0000
vt 0.1689 0.5459 0.0000
vt 0.1802 0.6851 0.0000
vt 0.1542 0.5474 0.0000
vt 0.1244 0.6838 0.0000
vt 0.1108 0.6847 0.0000
vt 0.1313 0.5474 0.0000
vt 0.1503 0.5461 0.0000
vt 0.1008 0.6786 0.0000
vt 0.1166 0.5459 0.0000
vt 0.5948 0.7489 0.0000
vt 0.6138 0.7343 0.0000
vt 0.6284 0.7533 0.0000
vt 0.6094 0.7680 0.0000
vt 0.2253 0.7546 0.0000
vt 0.2220 0.7620 0.0000
vt 0.8040 0.6431 0.0000
vt 0.7969 0.6376 0.0000
vt 0.8419 0.5849 0.0000
vt 0.7687 0.7026 0.0000
vt 0.7551 0.6922 0.0000
vt 0.9145 0.7489 0.0000
vt 0.9496 0.7946 0.0000
vt 0.9360 0.8050 0.0000
vt 0.9074 0.7543 0.0000
vt 0.0755 0.7612 0.0000
vt 0.0722 0.7538 0.0000
vt 0.8728 0.6997 0.0000
vt 0.0376 0.7777 0.0000
vt 0.2670 0.7790 0.0000
vt 0.8625 0.7017 0.0000
vt 0.8689 0.8012 0.0000
vt 0.8504 0.7985 0.0000
vt 0.8493 0.6997 0.0000
vt 0.4564 0.8344 0.0000
vt 0.3544 0.8972 0.0000
vt 0.3494 0.8794 0.0000
vt 0.4490 0.8235 0.0000
vt 0.1814 0.7872 0.0000
vt 0.1730 0.8500 0.0000
vt 0.1598 0.8455 0.0000
vt 0.1629 0.7809 0.0000
vt 0.1864 0.7987 0.0000
vt 0.1914 0.7809 0.0000
vt 0.2926 0.8455 0.0000
vt 0.2852 0.8564 0.0000
vt 0.5617 0.7817 0.0000
vt 0.5439 0.7885 0.0000
vt 0.5376 0.7700 0.0000
vt 0.5554 0.7632 0.0000
vt 0.5003 0.7669 0.0000
vt 0.5070 0.7692 0.0000
vt 0.1478 0.9129 0.0000
vt 0.1546 0.9152 0.0000
vt 0.1327 0.9694 0.0000
vt 0.8814 0.6933 0.0000
vt 0.8683 0.6978 0.0000
vt 0.8592 0.6391 0.0000
vt 0.8661 0.6367 0.0000
vt 0.3423 0.9129 0.0000
vt 0.3356 0.9152 0.0000
vt 0.8459 0.5849 0.0000
vt 0.3440 0.9694 0.0000
vt 0.5098 0.7150 0.0000
vt 0.0337 0.5459 0.0000
vt 0.0238 0.6277 0.0000
vt 0.0124 0.6280 0.0000
vt 0.0173 0.5464 0.0000
vt 0.0756 0.8630 0.0000
vt 0.0456 0.7821 0.0000
vt 0.0618 0.7796 0.0000
vt 0.0869 0.8613 0.0000
vt 0.1152 0.9154 0.0000
vt 0.1270 0.9965 0.0000
vt 0.1106 0.9961 0.0000
vt 0.1038 0.9151 0.0000
vt 0.0248 0.7796 0.0000
vt 0.0410 0.7821 0.0000
vt 0.0130 0.8631 0.0000
vt 0.0017 0.8614 0.0000
vt 0.5337 0.9056 0.0000
vt 0.5272 0.9220 0.0000
vt 0.5110 0.9155 0.0000
vt 0.5175 0.8991 0.0000
vt 0.0835 0.9324 0.0000
vt 0.0768 0.9335 0.0000
vt 0.1148 0.8449 0.0000
vt 0.1079 0.8447 0.0000
vt 0.0975 0.7796 0.0000
vt 0.0252 0.6990 0.0000
vt 0.0183 0.6992 0.0000
vt 0.0136 0.9337 0.0000
vt 0.0068 0.9327 0.0000
vt 0.0106 0.7653 0.0000
vt 0.0009 0.9990 0.0000
vt 0.0922 0.9985 0.0000
# 272 texture coords

o NaturePack_Grass1
g NaturePack_Grass1
usemtl Material__35
f 1/1/1 2/2/1 3/3/1 4/4/1 
f 2/5/2 5/6/2 6/7/2 3/8/2 
f 6/9/3 5/10/3 7/11/3 8/12/3 
f 4/13/4 8/14/4 7/15/4 1/16/4 
f 6/17/5 8/18/5 4/19/5 3/20/5 
f 5/6/6 2/5/6 9/21/6 10/22/6 
f 11/23/7 10/24/7 12/25/7 
f 10/24/8 11/23/8 7/11/8 5/10/8 
f 9/26/9 2/2/9 1/1/9 13/27/9 
f 13/28/10 1/16/10 7/15/10 11/29/10 
f 9/26/11 13/27/11 12/30/11 
f 13/28/12 11/29/12 12/31/12 
f 10/22/13 9/21/13 12/32/13 
f 14/33/14 15/34/14 16/35/14 17/36/14 
f 18/37/15 19/38/15 14/33/15 17/36/15 
f 20/39/16 19/40/16 18/41/16 21/42/16 
f 21/43/17 16/44/17 15/45/17 20/46/17 
f 20/47/18 15/48/18 14/49/18 19/50/18 
f 22/51/19 18/37/19 17/36/19 23/52/19 
f 24/53/20 22/54/20 25/55/20 
f 22/54/21 24/53/21 21/56/21 18/57/21 
f 23/58/22 17/59/22 16/60/22 26/61/22 
f 24/62/23 26/63/23 16/44/23 21/43/23 
f 23/58/24 26/61/24 25/64/24 
f 26/63/25 24/62/25 25/65/25 
f 22/51/26 23/52/26 25/66/26 
f 27/67/27 28/68/27 29/69/27 30/70/27 
f 27/71/28 30/72/28 31/73/28 32/74/28 
f 32/75/29 31/76/29 33/77/29 34/78/29 
f 33/79/30 29/80/30 28/81/30 34/82/30 
f 32/83/31 34/84/31 28/85/31 27/86/31 
f 35/87/32 31/73/32 30/72/32 36/88/32 
f 37/89/33 35/90/33 38/91/33 
f 33/77/34 31/76/34 35/92/34 37/93/34 
f 30/70/35 29/69/35 39/94/35 36/95/35 
f 29/80/36 33/79/36 37/96/36 39/97/36 
f 36/98/37 39/99/37 38/100/37 
f 39/97/38 37/96/38 38/101/38 
f 35/87/39 36/88/39 38/102/39 
f 40/103/40 41/104/40 42/105/40 43/106/40 
f 41/107/41 44/108/41 45/109/41 42/110/41 
f 45/111/42 44/112/42 46/113/42 47/114/42 
f 40/115/43 43/116/43 47/117/43 46/118/43 
f 45/119/5 47/120/5 43/121/5 42/122/5 
f 44/108/44 41/107/44 48/123/44 49/124/44 
f 50/125/45 49/126/45 51/127/45 
f 44/112/46 49/126/46 50/125/46 46/113/46 
f 41/104/47 40/103/47 52/128/47 48/129/47 
f 46/118/48 50/130/48 52/131/48 40/115/48 
f 48/129/49 52/128/49 51/132/49 
f 52/131/50 50/130/50 51/133/50 
f 49/124/51 48/123/51 51/134/51 
f 53/135/52 54/136/52 55/137/52 56/138/52 
f 53/139/53 57/140/54 58/141/55 54/142/55 
f 59/143/56 58/144/56 57/145/56 60/146/56 
f 59/147/57 60/148/58 56/149/59 55/150/57 
f 55/151/60 54/152/60 58/153/60 59/154/60 
f 61/155/61 60/146/61 57/145/61 62/156/61 
f 63/157/62 64/158/62 65/159/62 61/160/62 
f 56/138/63 65/161/64 66/162/64 53/135/63 
f 56/149/59 60/148/58 61/160/65 65/159/65 
f 62/163/66 57/140/54 53/139/53 66/164/66 
f 63/165/67 67/166/67 68/167/67 
f 67/168/68 62/163/68 66/164/68 69/169/68 
f 67/166/69 63/165/69 61/155/69 62/156/69 
f 64/170/70 69/171/70 66/162/64 65/161/64 
f 69/171/71 64/170/71 68/172/71 
f 64/158/72 63/157/72 68/173/72 
f 67/168/73 69/169/73 68/174/73 
f 70/175/74 71/176/74 72/177/74 73/178/74 
f 73/178/75 72/177/75 74/179/75 75/180/75 
f 74/181/76 76/182/76 77/183/76 75/184/76 
f 76/182/77 71/185/77 70/186/77 77/183/77 
f 77/187/78 70/188/78 73/189/78 75/190/78 
f 72/177/79 78/191/79 79/192/79 74/179/79 
f 80/193/80 79/194/80 81/195/80 
f 80/193/81 76/196/81 74/197/81 79/194/81 
f 78/198/82 72/199/82 71/200/82 82/201/82 
f 71/185/83 76/182/83 80/202/83 82/203/83 
f 78/198/84 82/201/84 81/204/84 
f 82/203/85 80/202/85 81/205/85 
f 79/192/86 78/191/86 81/206/86 
f 83/207/87 84/208/87 85/209/87 86/210/87 
f 87/211/88 88/212/88 84/213/88 83/214/88 
f 88/215/89 87/216/89 89/217/89 90/218/89 
f 85/219/90 90/220/90 89/221/90 86/222/90 
f 90/223/91 85/224/91 84/225/91 88/226/91 
f 83/214/92 91/227/92 92/228/92 87/211/92 
f 93/229/93 92/230/93 94/231/93 
f 89/217/94 87/216/94 92/230/94 93/229/94 
f 83/232/95 86/233/95 95/234/95 91/235/95 
f 86/222/96 89/221/96 93/236/96 95/237/96 
f 91/235/97 95/234/97 94/238/97 
f 95/237/98 93/236/98 94/239/98 
f 92/228/99 91/227/99 94/240/99 
f 96/241/100 97/242/100 98/243/100 99/244/100 
f 100/245/101 101/246/102 99/247/102 98/248/101 
f 102/249/103 103/250/103 101/251/103 100/252/103 
f 96/253/104 103/254/104 102/255/105 97/256/105 
f 96/257/106 99/258/106 101/259/106 103/260/106 
f 100/245/101 98/248/101 104/261/107 105/262/107 
f 106/263/108 105/264/108 107/265/108 
f 100/252/109 105/264/109 106/263/109 102/249/109 
f 97/242/110 108/266/110 104/267/110 98/243/110 
f 102/255/105 106/268/111 108/269/111 97/256/105 
f 104/267/112 108/266/112 107/270/112 
f 108/269/113 106/268/113 107/271/113 
f 105/262/114 104/261/114 107/272/114 
# 76 polygons - 32 triangles

