# 3ds Max Wavefront OBJ Exporter v0.97b - (c)2007 guruware
# File Created: 22.05.2022 20:25:39

mtllib brazo_der.mtl

#
# object Cube
#

v  -0.0334 -0.2189 -0.1158
v  -0.1786 -0.4257 -0.0763
v  -0.2915 -0.3367 -0.0682
v  -0.2061 -0.1089 -0.1174
v  -0.1478 -0.4384 0.0868
v  -0.1797 -0.4929 0.0984
v  -0.2076 -0.4889 -0.0690
v  -0.2523 -0.3506 0.1136
v  0.0098 -0.2505 0.1089
v  -0.1540 -0.1335 0.1421
v  -0.1837 -0.1004 0.0090
v  -0.4377 -0.8339 0.0307
v  -0.4093 -0.8443 0.1205
v  -0.2841 -0.4290 0.1220
v  -0.3193 -0.4252 -0.0616
v  -0.3688 -0.8769 0.0250
v  -0.3854 -0.9372 -0.0108
v  -0.4639 -0.9300 -0.0020
v  -0.3457 -0.8874 0.1030
v  -0.3666 -0.9962 0.2206
v  -0.3265 -1.0018 0.1929
v  -0.3363 -0.9362 0.1398
v  -0.4057 -0.9238 0.1713
v  -0.3817 -0.9985 0.0261
v  -0.4042 -1.0523 0.0271
v  -0.4098 -1.0524 0.0097
v  -0.3924 -0.9987 -0.0071
v  -0.3434 -0.9976 0.1441
v  -0.3550 -0.9979 0.1081
v  -0.3688 -0.9982 0.0658
v  -0.4710 -0.9914 0.0017
v  -0.4567 -0.9899 0.0444
v  -0.4426 -0.9884 0.0864
v  -0.4274 -0.9868 0.1316
v  -0.4127 -0.9852 0.1756
v  -0.3503 -1.0666 0.2323
v  -0.3420 -1.0566 0.2432
v  -0.3859 -1.0195 0.1953
v  -0.3457 -1.0250 0.1676
v  -0.3330 -1.0690 0.2204
v  -0.3247 -1.0590 0.2313
v  -0.3740 -1.0632 0.1485
v  -0.3655 -1.1206 0.1436
v  -0.3693 -1.1184 0.1234
v  -0.3808 -1.0634 0.1234
v  -0.4168 -1.0578 0.1350
v  -0.4256 -1.0503 0.1245
v  -0.3768 -1.0578 0.1087
v  -0.4384 -1.0503 0.0779
v  -0.3825 -1.0577 0.0623
v  -0.4085 -1.0571 0.1641
v  -0.3535 -1.1489 0.1189
v  -0.3736 -1.1544 0.1224
v  -0.4030 -1.1276 0.1291
v  -0.3984 -1.1296 0.1532
v  -0.3514 -1.1502 0.1291
v  -0.3711 -1.1556 0.1348
v  -0.3985 -1.1321 0.1179
v  -0.3704 -1.1232 0.1090
v  -0.4365 -1.0514 0.0903
v  -0.3868 -1.0580 0.0764
v  -0.3770 -1.1227 0.0858
v  -0.3570 -1.1500 0.0875
v  -0.3690 -1.1625 0.0917
v  -0.4055 -1.1319 0.0934
v  -0.3524 -1.1508 0.0966
v  -0.3642 -1.1631 0.1015
v  -0.3773 -1.1092 0.0579
v  -0.3856 -1.1112 0.0417
v  -0.3911 -1.0569 0.0367
v  -0.4480 -1.0505 0.0506
v  -0.3646 -1.1413 0.0387
v  -0.3832 -1.1523 0.0477
v  -0.4129 -1.1273 0.0549
v  -0.4041 -1.1246 0.0722
v  -0.3589 -1.1399 0.0499
v  -0.3772 -1.1504 0.0596
v  -0.4215 -1.0922 0.0288
v  -0.3953 -1.0848 0.0190
v  -0.4433 -1.0478 0.0366
v  -0.4508 -1.0486 0.0143
v  -0.3930 -1.1231 0.0102
v  -0.3886 -1.1212 0.0166
v  -0.4283 -1.0936 0.0135
v  -0.4006 -1.0855 0.0071
v  -0.3797 -1.1135 0.0095
v  -0.3831 -1.1149 0.0045
v  -0.1919 -0.0943 0.0109
v  -0.2140 -0.1054 -0.1231
v  -0.0289 -0.2247 -0.1234
v  0.0154 -0.2583 0.1133
v  -0.1606 -0.1315 0.1499
v  0.0991 -0.1397 0.2013
v  0.0162 0.0523 0.2367
v  -0.0555 0.0842 -0.1569
v  -0.0139 0.1506 0.0294
v  0.0254 -0.0577 -0.2327
# 97 vertices

vn -0.1183 -0.1379 -0.9833
vn 0.8622 -0.4746 -0.1769
vn 0.0846 -0.1763 0.9807
vn 0.7702 -0.6004 -0.2153
vn -0.9076 0.3584 0.2186
vn -0.9257 0.2992 0.2313
vn -0.9161 0.3455 0.2035
vn -0.1036 -0.0522 -0.9932
vn 0.2521 0.0257 0.9674
vn 0.0426 0.3909 -0.9195
vn -0.1690 -0.1678 -0.9712
vn 0.1964 -0.0668 0.9782
vn 0.8926 -0.3995 -0.2091
vn 0.4465 0.6297 0.6356
vn 0.4789 0.5274 0.7019
vn 0.9508 -0.0662 -0.3027
vn -0.9379 0.1528 0.3116
vn 0.8828 -0.3745 -0.2837
vn 0.9435 -0.1278 -0.3058
vn -0.9416 0.1279 0.3115
vn -0.1158 -0.0464 -0.9922
vn -0.7621 -0.0699 0.6437
vn 0.9201 -0.2024 -0.3354
vn -0.6934 0.0366 0.7196
vn -0.4479 -0.6247 -0.6397
vn 0.2601 -0.8019 0.5378
vn -0.4497 -0.7366 -0.5052
vn 0.8683 -0.2578 -0.4238
vn 0.5419 0.4793 0.6904
vn 0.9591 0.1795 -0.2190
vn -0.3200 -0.0934 -0.9428
vn 0.2933 -0.0982 0.9510
vn 0.2535 -0.1150 0.9605
vn 0.8720 -0.4138 -0.2614
vn -0.9461 -0.1155 0.3026
vn 0.3920 -0.1230 0.9117
vn -0.1800 0.0515 -0.9823
vn -0.9552 -0.1876 0.2290
vn -0.2417 -0.0038 -0.9704
vn 0.3527 -0.0636 0.9336
vn 0.2272 -0.9617 -0.1535
vn 0.3387 -0.2788 0.8986
vn 0.8743 0.4709 -0.1176
vn -0.6661 -0.7431 0.0635
vn 0.3058 0.0291 0.9517
vn -0.9472 -0.0676 0.3134
vn -0.2789 -0.0850 -0.9566
vn 0.9013 -0.3267 -0.2844
vn -0.1854 -0.1808 -0.9659
vn -0.9019 -0.3283 0.2807
vn -0.2578 -0.1550 -0.9537
vn 0.9537 0.0984 -0.2843
vn 0.6058 -0.7117 -0.3556
vn 0.7746 0.5833 -0.2445
vn 0.3783 -0.1123 0.9189
vn -0.6147 -0.7648 0.1931
vn 0.9219 0.0910 -0.3766
vn 0.9299 -0.2013 -0.3078
vn -0.2493 -0.1337 -0.9592
vn -0.9407 -0.1046 0.3226
vn -0.3537 -0.1578 -0.9220
vn -0.2865 -0.1557 -0.9453
vn -0.8429 -0.3909 0.3697
vn 0.3367 0.0300 0.9412
vn 0.4587 -0.8821 -0.1075
vn -0.5364 -0.7489 0.3890
vn 0.4517 0.0356 0.8915
vn 0.7161 0.5443 -0.4369
vn 0.2869 -0.0821 0.9544
vn -0.1314 -0.2580 -0.9572
vn 0.2280 -0.0776 0.9706
vn -0.9146 -0.2529 0.3155
vn -0.5435 -0.7394 0.3974
vn -0.8287 -0.4436 0.3414
vn 0.8902 0.3010 -0.3419
vn -0.1573 -0.0211 -0.9873
vn 0.5709 -0.8050 -0.1617
vn 0.7338 0.5113 -0.4473
vn -0.2529 -0.1306 -0.9586
vn 0.4283 0.0195 0.9034
vn -0.5333 -0.8318 0.1537
vn -0.5197 -0.8096 0.2730
vn -0.7928 -0.6061 0.0645
vn -0.5892 -0.7113 -0.3832
vn -0.5285 -0.8431 -0.0990
vn -0.1921 -0.3621 0.9121
vn -0.7904 0.6125 0.0089
vn -0.3907 -0.1324 -0.9110
vn 0.8697 -0.4375 -0.2286
vn -0.7623 0.5453 0.3485
# 90 vertex normals

vt 0.4753 0.5000 0.0000
vt 0.3750 0.5000 0.0000
vt 0.4282 0.5000 0.0000
vt 0.4533 0.5000 0.0000
vt 0.3989 0.5000 0.0000
vt 0.4269 0.5000 0.0000
vt 0.4507 0.5000 0.0000
vt 0.4264 0.5000 0.0000
vt 0.4004 0.5000 0.0000
vt 0.4221 0.5000 0.0000
# 10 texture coords

o Cube
g Cube
usemtl Material__35
f 1/1/1 2/1/1 3/1/1 4/1/1 
f 5/2/2 6/2/2 7/1/2 2/1/2 
f 8/2/3 5/2/3 9/2/3 10/2/3 
f 9/2/4 5/2/4 2/1/4 1/1/4 
f 8/2/5 10/2/5 11/3/5 3/1/5 
f 4/1/5 3/1/5 11/3/5 
f 12/1/6 13/2/6 14/2/6 15/1/6 
f 15/1/7 14/2/7 8/2/7 3/1/7 
f 2/1/8 7/1/8 15/1/8 3/1/8 
f 14/2/9 6/2/9 5/2/9 8/2/9 
f 16/1/10 17/1/10 18/1/10 12/1/10 
f 7/1/11 16/1/11 12/1/11 15/1/11 
f 13/2/12 19/2/12 6/2/12 14/2/12 
f 6/2/13 19/2/13 16/1/13 7/1/13 
f 20/2/14 21/2/14 22/2/14 23/2/14 
f 23/2/15 22/2/15 19/2/15 13/2/15 
f 19/2/16 22/2/16 17/1/16 16/1/16 
f 18/1/17 23/2/17 13/2/17 12/1/17 
f 24/4/18 25/4/18 26/1/18 27/1/18 
f 22/2/19 28/2/19 29/5/19 30/6/19 
f 22/2/19 30/6/19 24/4/19 27/1/19 
f 22/2/19 27/1/19 17/1/19 
f 18/1/20 31/1/20 32/7/20 33/8/20 
f 18/1/20 33/8/20 34/9/20 35/2/20 
f 18/1/20 35/2/20 23/2/20 
f 27/1/21 31/1/21 18/1/21 17/1/21 
f 36/2/22 37/2/22 20/2/22 38/2/22 
f 21/2/23 39/2/23 28/2/23 22/2/23 
f 35/2/24 38/2/24 20/2/24 23/2/24 
f 28/2/25 39/2/25 38/2/25 35/2/25 
f 36/2/26 40/2/26 41/2/26 37/2/26 
f 40/2/27 36/2/27 38/2/27 39/2/27 
f 21/2/28 41/2/28 40/2/28 39/2/28 
f 37/2/29 41/2/29 21/2/29 20/2/29 
f 42/2/30 43/2/30 44/5/30 45/5/30 
f 45/5/31 46/9/31 34/9/31 29/5/31 
f 47/9/32 48/5/32 29/5/32 34/9/32 
f 49/8/33 50/6/33 30/6/33 33/8/33 
f 28/2/34 42/2/34 45/5/34 29/5/34 
f 34/9/35 46/9/35 51/2/35 35/2/35 
f 51/2/36 42/2/36 28/2/36 35/2/36 
f 44/5/37 52/5/37 53/9/37 54/9/37 
f 46/9/38 54/9/38 55/2/38 51/2/38 
f 45/5/39 44/5/39 54/9/39 46/9/39 
f 55/2/40 43/2/40 42/2/40 51/2/40 
f 56/2/41 57/2/41 53/9/41 52/5/41 
f 57/2/42 56/2/42 43/2/42 55/2/42 
f 56/2/43 52/5/43 44/5/43 43/2/43 
f 54/9/44 53/9/44 57/2/44 55/2/44 
f 58/9/45 59/5/45 48/5/45 47/9/45 
f 33/8/46 60/8/46 47/9/46 34/9/46 
f 61/6/47 60/8/47 33/8/47 30/6/47 
f 48/5/48 61/6/48 30/6/48 29/5/48 
f 62/6/49 63/6/49 64/8/49 65/8/49 
f 65/8/50 58/9/50 47/9/50 60/8/50 
f 61/6/51 62/6/51 65/8/51 60/8/51 
f 48/5/52 59/5/52 62/6/52 61/6/52 
f 63/6/53 66/5/53 67/9/53 64/8/53 
f 59/5/54 66/5/54 63/6/54 62/6/54 
f 67/9/55 66/5/55 59/5/55 58/9/55 
f 64/8/56 67/9/56 58/9/56 65/8/56 
f 50/6/57 68/6/57 69/4/57 70/4/57 
f 50/6/58 70/4/58 24/4/58 30/6/58 
f 24/4/59 70/4/59 71/7/59 32/7/59 
f 32/7/60 71/7/60 49/8/60 33/8/60 
f 69/4/61 72/4/61 73/7/61 74/7/61 
f 70/4/62 69/4/62 74/7/62 71/7/62 
f 74/7/63 75/8/63 49/8/63 71/7/63 
f 75/8/64 68/6/64 50/6/64 49/8/64 
f 72/4/65 76/6/65 77/8/65 73/7/65 
f 73/7/66 77/8/66 75/8/66 74/7/66 
f 77/8/67 76/6/67 68/6/67 75/8/67 
f 68/6/68 76/6/68 72/4/68 69/4/68 
f 78/7/69 79/4/69 25/4/69 80/7/69 
f 27/1/70 26/1/70 81/1/70 31/1/70 
f 80/7/71 25/4/71 24/4/71 32/7/71 
f 81/1/72 80/7/72 32/7/72 31/1/72 
f 82/1/73 83/7/73 78/7/73 84/1/73 
f 84/1/74 78/7/74 80/7/74 81/1/74 
f 79/4/75 85/1/75 26/1/75 25/4/75 
f 26/1/76 85/1/76 84/1/76 81/1/76 
f 86/4/77 83/7/77 82/1/77 87/1/77 
f 86/4/78 87/1/78 85/1/78 79/4/78 
f 85/1/79 87/1/79 82/1/79 84/1/79 
f 83/7/80 86/4/80 79/4/80 78/7/80 
usemtl Material__48
f 88/3/81 89/1/81 4/1/81 11/3/81 
f 4/1/82 89/1/82 90/1/82 1/1/82 
f 90/1/83 91/2/83 9/2/83 1/1/83 
f 91/2/84 92/2/84 10/2/84 9/2/84 
f 10/2/85 92/2/85 88/3/85 11/3/85 
f 92/2/86 91/2/86 93/2/86 94/2/86 
f 95/1/87 89/1/87 88/3/87 96/10/87 
f 97/1/88 90/1/88 89/1/88 95/1/88 
f 93/2/89 91/2/89 90/1/89 97/1/89 
f 92/2/90 94/2/90 96/10/90 88/3/90 
# 92 polygons - 3 triangles

