# 3ds Max Wavefront OBJ Exporter v0.97b - (c)2007 guruware
# File Created: 22.05.2022 20:32:57

mtllib guy_leg.mtl

#
# object Cube
#

v  0.0207 0.0256 0.1787
v  0.0432 0.0322 0.1663
v  0.0392 0.0319 0.1773
v  0.0207 0.0251 0.1904
v  0.7654 0.0720 0.1224
v  0.7629 0.0708 0.1348
v  0.7432 0.0762 0.1291
v  0.7452 0.0775 0.1189
v  0.0022 0.0319 0.1773
v  -0.0018 0.0322 0.1663
v  -0.0374 -1.2306 0.0892
v  -0.2496 -1.2266 0.0892
v  -0.2413 -1.2256 0.0810
v  -0.0461 -1.2294 0.0816
v  -0.2531 -1.2335 -0.1245
v  -0.0529 -1.2397 -0.1222
v  -0.0608 -1.2398 -0.1135
v  -0.2451 -1.2336 -0.1160
v  -0.7018 0.0762 0.1291
v  -0.7214 0.0708 0.1348
v  -0.7240 0.0720 0.1224
v  -0.7038 0.0775 0.1189
v  -0.7073 0.0764 0.0875
v  -0.7027 0.0756 0.0966
v  -0.7145 0.0633 0.1015
v  -0.7193 0.0639 0.0917
v  -0.0214 -0.5845 0.1586
v  -0.0205 -0.5996 -0.0913
v  -0.0107 -0.4189 -0.0939
v  -0.0123 -0.3922 0.1995
v  0.0030 0.0253 -0.1797
v  -0.2432 -0.3864 0.1978
v  -0.2635 0.0375 0.1726
v  -0.2729 -0.4090 -0.0975
v  -0.2922 0.0346 -0.1817
v  -0.2804 -0.5870 -0.0943
v  -0.2547 -0.5755 0.1570
v  -0.2394 -1.2373 0.1758
v  -0.0499 -1.2413 0.1773
v  -0.2411 -1.3344 0.0644
v  -0.2477 -1.3315 -0.1229
v  -0.0633 -1.3377 -0.1204
v  -0.0522 -1.3382 0.0653
v  -0.0829 -1.2838 0.3410
v  -0.0848 -1.3436 0.3357
v  -0.0531 -1.3415 0.1656
v  -0.2423 -1.3375 0.1641
v  -0.2106 -1.2811 0.3399
v  -0.2125 -1.3409 0.3346
# 49 vertices

vn 0.3230 -0.9461 0.0248
vn -0.2271 -0.9617 -0.1534
vn -0.3230 -0.9461 0.0248
vn -0.0189 -0.9907 -0.1350
vn -0.0320 -0.9994 -0.0158
vn 0.0518 -0.9980 0.0354
vn -0.0591 -0.9969 0.0522
vn 0.2272 -0.9617 -0.1535
vn 0.6058 -0.7117 -0.3556
vn 0.9987 -0.0511 0.0084
vn 0.9995 -0.0318 0.0054
vn -0.0117 0.0558 0.9984
vn 0.0035 -0.1882 -0.9821
vn -0.9953 -0.0340 0.0909
vn 0.0135 0.0474 -0.9988
vn 0.0119 -0.0166 -0.9998
vn -0.0138 -0.2084 0.9779
vn -0.9943 0.0416 0.0983
vn -0.0069 -0.1051 0.9944
vn -0.9975 -0.0297 0.0638
vn 0.9989 -0.0353 -0.0299
vn 0.0197 0.9922 0.1230
vn -0.0265 -0.9996 -0.0079
vn -0.9996 0.0082 0.0267
vn 0.9972 -0.0343 -0.0665
vn 0.0157 0.0698 -0.9974
vn 0.9817 -0.0514 0.1836
vn -0.9999 0.0125 0.0048
vn 0.9987 -0.0472 0.0199
vn -0.0204 -0.9993 -0.0317
vn -0.0102 -0.0883 0.9960
vn 0.0183 0.9668 0.2548
vn -0.9847 0.0118 0.1741
vn -0.0210 -0.9996 -0.0166
# 34 vertex normals

vt 0.3750 0.3750 0.0000
vt 0.3750 0.3852 0.0000
vt 0.4004 0.5000 0.0000
vt 0.3750 0.5000 0.0000
vt 0.3989 0.5000 0.0000
vt 0.2602 0.5000 0.0000
vt 0.4753 0.5000 0.0000
vt 0.4753 0.3839 0.0000
vt 0.4269 0.5000 0.0000
vt 0.4264 0.5000 0.0000
# 10 texture coords

o Cube
g Cube
usemtl Material__61
f 1/1/1 2/2/1 3/2/1 4/1/1 
usemtl Material__35
f 5/3/2 6/4/2 7/4/2 8/5/2 
usemtl Material__61
f 1/1/3 4/1/3 9/2/3 10/2/3 
usemtl skin
f 11/6/4 12/4/4 13/4/4 14/6/4 
usemtl Material__61
f 15/7/5 16/8/5 17/8/5 18/7/5 
f 12/4/6 15/7/6 18/7/6 13/4/6 
f 16/8/7 11/2/7 14/2/7 17/8/7 
usemtl Material__35
f 19/4/8 20/4/8 21/3/8 22/5/8 
f 23/9/9 24/5/9 25/3/9 26/10/9 
usemtl Material__61
f 27/2/10 28/8/10 29/8/10 30/2/10 
f 9/2/11 30/2/11 29/8/11 31/8/11 
f 32/4/12 30/6/12 9/6/12 33/4/12 
f 31/8/13 29/8/13 34/7/13 35/7/13 
f 34/7/14 32/4/14 33/4/14 35/7/14 
f 28/8/15 16/8/15 15/7/15 36/7/15 
f 28/8/16 36/7/16 34/7/16 29/8/16 
f 32/4/17 37/4/17 27/6/17 30/6/17 
f 34/7/18 36/7/18 37/4/18 32/4/18 
f 12/4/19 11/6/19 27/6/19 37/4/19 
f 36/7/20 15/7/20 12/4/20 37/4/20 
f 11/2/21 16/8/21 28/8/21 27/2/21 
usemtl Material__74
f 38/4/22 39/6/22 14/6/22 13/4/22 
f 40/4/23 41/7/23 42/8/23 43/2/23 
f 18/7/24 41/7/24 40/4/24 13/4/24 
f 43/2/25 42/8/25 17/8/25 14/2/25 
f 17/8/26 42/8/26 41/7/26 18/7/26 
f 44/2/27 45/2/27 46/2/27 39/2/27 
f 47/4/28 38/4/28 13/4/28 40/4/28 
f 14/2/29 39/2/29 46/2/29 43/2/29 
f 46/2/30 47/4/30 40/4/30 43/2/30 
f 48/4/31 49/4/31 45/6/31 44/6/31 
f 48/4/32 44/6/32 39/6/32 38/4/32 
f 47/4/33 49/4/33 48/4/33 38/4/33 
f 45/2/34 49/4/34 47/4/34 46/2/34 
# 34 polygons

