# 3ds Max Wavefront OBJ Exporter v0.97b - (c)2007 guruware
# File Created: 12.05.2022 01:56:11

mtllib piedrita.mtl

#
# object NaturePack_Rock3
#

v  0.0183 -0.1052 -0.5186
v  -0.1895 0.2984 -0.1165
v  0.2095 0.2874 -0.3717
v  -0.3234 -0.0920 -0.0195
v  -0.1162 0.2770 0.2680
v  0.0226 -0.1133 0.4728
v  0.5726 -0.0924 0.2637
v  0.4256 0.2882 0.2386
v  0.1812 -0.1832 -0.0278
v  0.6048 -0.1152 -0.3250
v  0.6665 0.1514 -0.0469
v  0.0657 0.1789 0.3734
# 12 vertices

vn -0.4572 0.4984 -0.7366
vn -0.9122 0.3611 0.1938
vn 0.3423 0.1930 0.9196
vn -0.1785 -0.9792 -0.0962
vn -0.8153 0.1401 -0.5619
vn 0.9557 -0.2873 0.0633
vn -0.1759 -0.9811 0.0812
vn 0.3103 0.1970 -0.9300
vn -0.8179 0.0109 0.5753
vn 0.0393 -0.9848 -0.1693
vn 0.5938 0.5110 -0.6215
vn 0.3673 0.9208 -0.1313
vn 0.2626 0.2760 0.9246
vn 0.0205 0.7493 0.6619
vn 0.1014 -0.9804 0.1689
vn 0.1912 -0.9804 0.0483
vn -0.3229 0.3472 0.8805
vn 0.7928 0.3397 0.5061
vn 0.0562 0.9974 0.0448
vn -0.0203 0.9998 0.0059
# 20 vertex normals

vt 0.6361 0.7527 0.0000
vt 0.4443 0.8514 0.0000
vt 0.4496 0.6618 0.0000
vt 0.1966 0.2809 0.0000
vt 0.0111 0.2348 0.0000
vt 0.1864 0.0982 0.0000
vt 0.2494 0.7353 0.0000
vt 0.2594 0.4740 0.0000
vt 0.4402 0.5438 0.0000
vt 0.2019 0.2380 0.0000
vt 0.3643 0.0009 0.0000
vt 0.4417 0.2341 0.0000
vt 0.0048 0.4720 0.0000
vt 0.0645 0.7759 0.0000
vt 0.0536 0.4961 0.0000
vt 0.1803 0.6283 0.0000
vt 0.3664 0.4720 0.0000
vt 0.6408 0.4740 0.0000
vt 0.0010 0.0009 0.0000
vt 0.6430 0.0929 0.0000
vt 0.2449 0.4740 0.0000
vt 0.7090 0.5884 0.0000
vt 0.8447 0.4740 0.0000
vt 0.9990 0.6911 0.0000
vt 0.3883 0.7149 0.0000
vt 0.6450 0.7595 0.0000
vt 0.6951 0.8459 0.0000
vt 0.6277 0.3726 0.0000
vt 0.4349 0.8013 0.0000
vt 0.2453 0.7639 0.0000
vt 0.8778 0.8807 0.0000
# 31 texture coords

o NaturePack_Rock3
g NaturePack_Rock3
usemtl Material__142
f 1/1/1 2/2/1 3/3/1 
f 2/4/2 4/5/2 5/6/2 
f 6/7/3 7/8/3 8/9/3 
f 4/10/4 1/11/4 9/12/4 
f 4/5/5 2/4/5 1/13/5 
f 7/14/6 10/15/6 11/16/6 
f 6/17/7 4/10/7 9/12/7 
f 10/18/8 1/1/8 3/3/8 
f 6/19/9 5/6/9 4/5/9 
f 1/11/10 10/20/10 9/12/10 
f 11/16/11 10/15/11 3/21/11 
f 8/22/12 11/23/12 3/24/12 
f 12/25/13 6/7/13 8/9/13 
f 12/26/14 8/22/14 5/27/14 
f 7/28/15 6/17/15 9/12/15 
f 10/20/16 7/28/16 9/12/16 
f 5/29/17 6/7/17 12/25/17 
f 7/14/18 11/16/18 8/30/18 
f 5/27/19 3/24/19 2/31/19 
f 3/24/20 5/27/20 8/22/20 
# 0 polygons - 20 triangles

