# 3ds Max Wavefront OBJ Exporter v0.97b - (c)2007 guruware
# File Created: 12.05.2022 04:30:11

mtllib picina.mtl

#
# object Box001
#

v  4.9692 0.0000 -9.6597
v  4.9692 0.0000 9.6305
v  -4.9073 0.0000 9.6305
v  -4.9073 0.0000 -9.6597
v  4.9692 9.8765 9.6305
v  -4.9073 9.8765 9.6305
v  4.9692 9.8765 -9.6597
v  -4.9073 9.8765 -9.6597
# 8 vertices

vn 0.5774 -0.5774 -0.5774
vn 0.5774 -0.5774 0.5774
vn -0.5774 -0.5774 0.5774
vn -0.5774 -0.5774 -0.5774
vn 0.5774 0.5774 0.5774
vn -0.5774 0.5774 0.5774
vn 0.5774 0.5774 -0.5774
vn -0.5774 0.5774 -0.5774
# 8 vertex normals

vt 0.0000 19.2901 0.0000
vt 0.0000 0.0000 0.0000
vt 9.8765 0.0000 0.0000
vt 9.8765 19.2901 0.0000
vt 9.8765 9.8765 0.0000
vt 0.0000 9.8765 0.0000
vt 19.2901 9.8765 0.0000
vt 19.2901 0.0000 0.0000
# 8 texture coords

o Box001
g Box001
usemtl Material__25
f 1/1/1 2/2/2 3/3/3 4/4/4 
f 5/5/5 6/6/6 3/2/3 2/3/2 
f 7/7/7 5/6/5 2/2/2 1/8/1 
f 8/5/8 7/6/7 1/2/1 4/3/4 
f 6/7/6 8/6/8 4/2/4 3/8/3 
# 5 polygons

