# 3ds Max Wavefront OBJ Exporter v0.97b - (c)2007 guruware
# File Created: 11.05.2022 01:33:57

mtllib pilar.mtl

#
# object brick_wall_column_big
#

v  1.8344 18.3027 -1.9197
v  -1.8902 18.3027 -1.9197
v  -1.8902 18.3027 1.8049
v  1.8344 18.3027 1.8049
v  -1.7575 14.1146 1.6994
v  -1.7575 -0.0748 1.6994
v  1.7017 -0.0748 1.6994
v  1.7017 14.1146 1.6994
v  1.7289 14.1146 -1.7870
v  1.7289 14.1146 1.6722
v  1.7289 -0.0748 1.6722
v  1.7289 -0.0748 -1.7870
v  -1.7575 14.1146 -1.8142
v  1.7017 14.1146 -1.8142
v  1.7017 -0.0748 -1.8142
v  -1.7575 -0.0748 -1.8142
v  -1.7847 14.1146 -1.7870
v  -1.7847 -0.0748 -1.7870
v  -1.7847 -0.0748 1.6722
v  -1.7847 14.1146 1.6722
v  -1.8902 17.9007 1.8321
v  1.8344 17.9007 1.8321
v  1.8344 18.2724 1.8321
v  -1.8902 18.2724 1.8321
v  1.8616 18.2724 1.8049
v  1.8616 17.9007 1.8049
v  1.8616 17.9007 -1.9197
v  1.8616 18.2724 -1.9197
v  -1.8902 18.2724 -1.9469
v  1.8344 18.2724 -1.9469
v  1.8344 17.9007 -1.9469
v  -1.8902 17.9007 -1.9469
v  -1.9174 17.9007 -1.9197
v  -1.9174 17.9007 1.8049
v  -1.9174 18.2724 1.8049
v  -1.9174 18.2724 -1.9197
v  -2.5507 17.6359 2.4958
v  -2.5507 15.5508 2.4958
v  2.4949 15.5508 2.4958
v  2.4949 17.6359 2.4958
v  2.5253 17.6359 2.4654
v  2.5253 15.5508 2.4654
v  2.5253 15.5508 -2.5802
v  2.5253 17.6359 -2.5802
v  2.4949 17.6359 -2.6106
v  2.4949 15.5508 -2.6106
v  -2.5507 15.5508 -2.6106
v  -2.5507 17.6359 -2.6106
v  -2.5811 15.5508 -2.5802
v  -2.5811 15.5508 2.4654
v  -2.5811 17.6359 2.4654
v  -2.5811 17.6359 -2.5802
v  -2.5507 17.6662 2.4654
v  2.4949 17.6662 2.4654
v  -2.5507 17.6662 -2.5802
v  2.4949 17.6662 -2.5802
v  -2.0386 14.8175 1.9836
v  -2.0386 14.1449 1.9836
v  1.9828 14.1449 1.9836
v  1.9828 14.8175 1.9836
v  2.0131 14.8175 -2.0681
v  2.0131 14.8175 1.9533
v  2.0131 14.1449 1.9533
v  2.0131 14.1449 -2.0681
v  -2.0386 14.8175 -2.0984
v  1.9828 14.8175 -2.0984
v  1.9828 14.1449 -2.0984
v  -2.0386 14.1449 -2.0984
v  -2.0689 14.8175 1.9533
v  -2.0689 14.8175 -2.0681
v  -2.0689 14.1449 -2.0681
v  -2.0689 14.1449 1.9533
v  -2.3083 15.5204 2.2534
v  -2.3083 14.8175 2.2534
v  2.2525 14.8175 2.2534
v  2.2525 15.5204 2.2534
v  2.2829 15.5204 2.2230
v  2.2829 14.8478 2.2230
v  2.2829 14.8478 -2.3378
v  2.2829 15.5204 -2.3378
v  2.2525 14.8478 -2.3682
v  -2.3083 14.8478 -2.3682
v  -2.3083 15.5204 -2.3682
v  2.2525 15.5204 -2.3682
v  -2.3387 15.5204 2.2230
v  -2.3387 15.5204 -2.3378
v  -2.3387 14.8478 -2.3378
v  -2.3387 14.8478 2.2230
v  2.2525 14.8175 2.2230
v  -2.3083 14.8175 2.2230
v  -2.3083 14.8175 -2.3378
v  2.2525 14.8175 -2.3378
v  -2.0386 14.1146 1.9533
v  1.9828 14.1146 1.9533
v  -2.0386 14.1146 -2.0681
v  1.9828 14.1146 -2.0681
v  2.4949 15.5204 -2.5802
v  -2.5507 15.5204 -2.5802
v  -2.5507 15.5204 2.4654
v  2.4949 15.5204 2.4654
v  1.8327 -0.0748 -1.8649
v  1.8327 -0.0748 1.7525
v  -1.8613 -0.0748 1.7525
v  -1.8613 -0.0748 -1.8649
v  1.9291 18.3806 1.8127
v  1.9291 18.3806 -1.9251
v  -1.9577 18.3806 -1.9251
v  -1.9577 18.3806 1.8127
v  -1.8613 13.4910 1.7525
v  1.8327 13.4910 1.7525
v  1.8327 13.4910 -1.8649
v  -1.8613 13.4910 -1.8649
v  2.6945 15.5588 2.6143
v  -2.7231 15.5588 2.6143
v  2.6945 15.5588 -2.7267
v  -2.7231 15.5588 -2.7267
v  2.6945 17.6381 2.6143
v  -2.7231 17.6381 2.6143
v  2.6945 17.6381 -2.7267
v  -2.7231 17.6381 -2.7267
# 120 vertices

vn 0.0000 1.0000 -0.0000
vn 0.0000 0.0000 1.0000
vn 0.9239 0.0000 -0.3826
vn 0.9239 0.0000 0.3827
vn 0.0000 0.0000 -1.0000
vn -0.9239 0.0000 -0.3826
vn -0.9239 0.0000 0.3827
vn -0.3827 0.0000 0.9239
vn 0.3827 0.0000 0.9239
vn 0.3447 0.3186 0.8830
vn -0.3447 0.3186 0.8830
vn 0.8830 0.3186 0.3448
vn 0.9239 0.0000 -0.3827
vn 0.8830 0.3186 -0.3448
vn -0.3448 0.3186 -0.8830
vn 0.3448 0.3186 -0.8830
vn 0.3827 0.0000 -0.9239
vn -0.3827 0.0000 -0.9239
vn -0.9239 0.0000 -0.3827
vn -0.8830 0.3186 0.3448
vn -0.8830 0.3186 -0.3448
vn -0.3416 0.3416 0.8756
vn -0.3416 -0.3416 0.8756
vn 0.3416 -0.3416 0.8756
vn 0.3416 0.3416 0.8756
vn 1.0000 0.0000 -0.0000
vn 0.3416 0.3416 -0.8756
vn 0.3416 -0.3416 -0.8756
vn -0.3416 -0.3416 -0.8756
vn -0.3416 0.3416 -0.8756
vn -1.0000 0.0000 -0.0000
vn -0.3847 0.8390 0.3847
vn 0.3847 0.8390 0.3847
vn 0.0704 0.9571 0.2810
vn -0.0704 0.9571 0.2810
vn -0.3847 0.8390 -0.3847
vn -0.2810 0.9571 0.0704
vn -0.2810 0.9571 -0.0704
vn -0.0704 0.9571 -0.2810
vn 0.0704 0.9571 -0.2810
vn 0.3847 0.8390 -0.3847
vn 0.2810 0.9571 -0.0704
vn 0.2810 0.9571 0.0704
vn 0.8756 -0.3416 0.3416
vn 0.8756 -0.3416 -0.3416
vn -0.8756 -0.3416 -0.3416
vn -0.8756 -0.3416 0.3416
vn -0.3914 -0.6507 0.6507
vn 0.3914 -0.6507 0.6507
vn 0.9054 -0.3002 0.3002
vn -0.9054 -0.3002 0.3002
vn 0.0000 -1.0000 -0.0000
vn 0.3827 -0.9239 -0.0000
vn -0.3827 -0.9239 -0.0000
vn -0.3416 -0.8756 -0.3416
vn 0.3416 -0.8756 -0.3416
vn -0.3416 -0.8756 0.3416
vn 0.3416 -0.8756 0.3416
vn -0.4870 0.7250 0.4871
vn 0.4870 0.7250 0.4871
vn -0.4870 0.7250 -0.4870
vn 0.4870 0.7250 -0.4870
vn 0.7588 0.4606 0.4606
vn -0.7588 0.4606 0.4606
vn -0.7588 0.4606 -0.4606
vn 0.7588 0.4606 -0.4606
vn -0.7588 -0.4606 0.4606
vn 0.7588 -0.4606 0.4606
vn 0.7588 -0.4606 -0.4606
vn -0.7588 -0.4606 -0.4606
vn 0.7071 0.0000 0.7071
vn 0.7072 0.0000 -0.7070
vn -0.7072 0.0000 -0.7070
vn -0.7071 0.0000 0.7071
vn 0.2955 0.9122 0.2840
vn 0.2955 0.9122 -0.2840
vn -0.2955 0.9122 -0.2840
vn -0.2955 0.9122 0.2840
vn 0.0000 -0.2166 0.9762
vn 0.9762 -0.2166 -0.0000
vn 0.0000 -0.2166 -0.9762
vn -0.9762 -0.2166 -0.0000
vn 0.0000 -0.1701 0.9854
vn 0.9854 -0.1701 -0.0000
vn 0.0000 -0.1701 -0.9854
vn -0.9854 -0.1701 -0.0000
vn -0.3914 0.8308 0.3958
vn 0.3914 0.8308 0.3958
vn 0.3914 0.8308 -0.3958
vn -0.3914 0.8308 -0.3958
# 90 vertex normals

vt 0.8549 0.9984 0.0000
vt 0.8549 0.9106 0.0000
vt 0.9481 0.9106 0.0000
vt 0.9481 0.9984 0.0000
vt 0.9264 0.4552 0.0000
vt 0.0011 0.4552 0.0000
vt 0.0011 0.2297 0.0000
vt 0.9264 0.2297 0.0000
vt 0.9264 0.0023 0.0000
vt 0.9264 0.2279 0.0000
vt 0.0011 0.2279 0.0000
vt 0.0011 0.0023 0.0000
vt 0.9264 0.6844 0.0000
vt 0.9264 0.9100 0.0000
vt 0.0011 0.9100 0.0000
vt 0.0011 0.6844 0.0000
vt 0.9264 0.6826 0.0000
vt 0.0011 0.6826 0.0000
vt 0.0011 0.4570 0.0000
vt 0.9264 0.4570 0.0000
vt 0.8629 0.9464 0.0000
vt 0.9982 0.9464 0.0000
vt 0.9982 0.9599 0.0000
vt 0.8629 0.9599 0.0000
vt 0.9979 0.9299 0.0000
vt 0.9979 0.9434 0.0000
vt 0.8626 0.9434 0.0000
vt 0.8626 0.9299 0.0000
vt 0.9953 0.9775 0.0000
vt 0.8600 0.9775 0.0000
vt 0.8600 0.9640 0.0000
vt 0.9953 0.9640 0.0000
vt 0.8608 0.9804 0.0000
vt 0.9961 0.9804 0.0000
vt 0.9961 0.9939 0.0000
vt 0.8608 0.9939 0.0000
vt 0.6392 0.9109 0.0000
vt 0.6392 0.9984 0.0000
vt 0.4275 0.9984 0.0000
vt 0.4275 0.9109 0.0000
vt 0.4262 0.9109 0.0000
vt 0.4262 0.9984 0.0000
vt 0.2144 0.9984 0.0000
vt 0.2144 0.9109 0.0000
vt 0.2132 0.9109 0.0000
vt 0.2132 0.9984 0.0000
vt 0.0014 0.9984 0.0000
vt 0.0014 0.9109 0.0000
vt 0.8523 0.9984 0.0000
vt 0.6405 0.9984 0.0000
vt 0.6405 0.9109 0.0000
vt 0.8523 0.9109 0.0000
vt 0.9972 0.5814 0.0000
vt 0.9972 0.7812 0.0000
vt 0.9722 0.7551 0.0000
vt 0.9722 0.6076 0.0000
vt 0.9987 0.5805 0.0000
vt 0.9987 0.7803 0.0000
vt 0.9736 0.7541 0.0000
vt 0.9736 0.6067 0.0000
vt 0.9723 0.7548 0.0000
vt 0.9723 0.6074 0.0000
vt 0.9974 0.5812 0.0000
vt 0.9974 0.7810 0.0000
vt 0.9981 0.7803 0.0000
vt 0.9730 0.7542 0.0000
vt 0.9730 0.6067 0.0000
vt 0.9981 0.5806 0.0000
vt 0.9327 0.4810 0.0000
vt 0.9641 0.4810 0.0000
vt 0.9641 0.6689 0.0000
vt 0.9327 0.6689 0.0000
vt 0.9327 0.8582 0.0000
vt 0.9327 0.6703 0.0000
vt 0.9641 0.6703 0.0000
vt 0.9641 0.8582 0.0000
vt 0.9327 0.2902 0.0000
vt 0.9327 0.1023 0.0000
vt 0.9641 0.1023 0.0000
vt 0.9641 0.2902 0.0000
vt 0.9327 0.4795 0.0000
vt 0.9327 0.2916 0.0000
vt 0.9641 0.2916 0.0000
vt 0.9641 0.4795 0.0000
vt 0.9319 0.6465 0.0000
vt 0.9648 0.6465 0.0000
vt 0.9648 0.8596 0.0000
vt 0.9319 0.8596 0.0000
vt 0.9296 0.0029 0.0000
vt 0.9610 0.0028 0.0000
vt 0.9620 0.2159 0.0000
vt 0.9306 0.2161 0.0000
vt 0.9620 0.2173 0.0000
vt 0.9630 0.4304 0.0000
vt 0.9316 0.4306 0.0000
vt 0.9306 0.2175 0.0000
vt 0.9316 0.6451 0.0000
vt 0.9316 0.4320 0.0000
vt 0.9630 0.4321 0.0000
vt 0.9630 0.6451 0.0000
vt 0.9785 0.6020 0.0000
vt 0.9880 0.5913 0.0000
vt 0.9892 0.5913 0.0000
vt 0.9880 0.7719 0.0000
vt 0.9892 0.7719 0.0000
vt 0.9785 0.7612 0.0000
vt 0.9801 0.6006 0.0000
vt 0.9895 0.5900 0.0000
vt 0.9895 0.7705 0.0000
vt 0.9801 0.7599 0.0000
vt 0.9780 0.6013 0.0000
vt 0.9875 0.5906 0.0000
vt 0.9875 0.7712 0.0000
vt 0.9780 0.7605 0.0000
vt 0.9880 0.7709 0.0000
vt 0.9785 0.7602 0.0000
vt 0.9785 0.6010 0.0000
vt 0.9880 0.5903 0.0000
vt 0.9770 0.7606 0.0000
vt 0.9669 0.7495 0.0000
vt 0.9669 0.6125 0.0000
vt 0.9770 0.6014 0.0000
vt 0.9682 0.6121 0.0000
vt 0.9783 0.6009 0.0000
vt 0.9783 0.7602 0.0000
vt 0.9682 0.7490 0.0000
vt 0.9771 0.6018 0.0000
vt 0.9771 0.7611 0.0000
vt 0.9671 0.7499 0.0000
vt 0.9671 0.6130 0.0000
vt 0.9678 0.7488 0.0000
vt 0.9678 0.6118 0.0000
vt 0.9779 0.6007 0.0000
vt 0.9779 0.7599 0.0000
vt 0.9973 0.7812 0.0000
vt 0.9889 0.7716 0.0000
vt 0.9889 0.5911 0.0000
vt 0.9973 0.5815 0.0000
vt 0.9973 0.7810 0.0000
vt 0.9890 0.7714 0.0000
vt 0.9890 0.5908 0.0000
vt 0.9973 0.5812 0.0000
vt 0.9897 0.7707 0.0000
vt 0.9897 0.5901 0.0000
vt 0.9981 0.5805 0.0000
vt 0.9903 0.7708 0.0000
vt 0.9903 0.5902 0.0000
vt 0.9987 0.5806 0.0000
vt 0.9898 0.8108 0.0000
vt 0.9912 0.8100 0.0000
vt 0.9912 0.8115 0.0000
vt 0.9907 0.8103 0.0000
vt 0.9907 0.8118 0.0000
vt 0.9893 0.8111 0.0000
vt 0.9896 0.8106 0.0000
vt 0.9910 0.8098 0.0000
vt 0.9910 0.8114 0.0000
vt 0.9912 0.8092 0.0000
vt 0.9912 0.8107 0.0000
vt 0.9898 0.8099 0.0000
vt 0.9719 0.6057 0.0000
vt 0.9725 0.7552 0.0000
vt 0.9719 0.7553 0.0000
vt 0.9725 0.6056 0.0000
vt 0.9823 0.6311 0.0000
vt 0.9803 0.6317 0.0000
vt 0.9806 0.6311 0.0000
vt 0.9840 0.7936 0.0000
vt 0.9857 0.7935 0.0000
vt 0.9849 0.7950 0.0000
vt 0.9834 0.7954 0.0000
vt 0.9851 0.7954 0.0000
vt 0.9843 0.7969 0.0000
vt 0.9893 0.8101 0.0000
vt 0.9908 0.8093 0.0000
vt 0.9908 0.8110 0.0000
vt 0.9834 0.6345 0.0000
vt 0.9816 0.6344 0.0000
vt 0.9833 0.6344 0.0000
vt 0.9802 0.6312 0.0000
vt 0.9811 0.6327 0.0000
vt 0.9794 0.6327 0.0000
vt 0.9804 0.6288 0.0000
vt 0.9812 0.6303 0.0000
vt 0.9795 0.6303 0.0000
vt 0.9899 0.8118 0.0000
vt 0.9908 0.8103 0.0000
vt 0.9916 0.8118 0.0000
vt 0.9900 0.8107 0.0000
vt 0.9900 0.8090 0.0000
vt 0.9915 0.8099 0.0000
vt 0.9913 0.8104 0.0000
vt 0.9898 0.8112 0.0000
vt 0.9898 0.8095 0.0000
vt 0.9906 0.8106 0.0000
vt 0.9891 0.8115 0.0000
vt 0.9891 0.8098 0.0000
vt 0.9891 0.8125 0.0000
vt 0.9891 0.8108 0.0000
vt 0.9906 0.8117 0.0000
vt 0.9885 0.7719 0.0000
vt 0.9891 0.5890 0.0000
vt 0.9891 0.7720 0.0000
vt 0.9885 0.5889 0.0000
vt 0.9907 0.5900 0.0000
vt 0.9895 0.5888 0.0000
vt 0.9880 0.7721 0.0000
vt 0.9892 0.7709 0.0000
vt 0.9899 0.8113 0.0000
vt 0.9908 0.8098 0.0000
vt 0.9916 0.8113 0.0000
vt 0.9647 0.4313 0.0000
vt 0.9773 0.7614 0.0000
vt 0.9789 0.5994 0.0000
vt 0.9789 0.7611 0.0000
vt 0.9773 0.5998 0.0000
vt 0.9668 0.7499 0.0000
vt 0.9671 0.6110 0.0000
vt 0.9671 0.7501 0.0000
vt 0.9668 0.6107 0.0000
vt 0.8629 0.9611 0.0000
vt 0.9982 0.9611 0.0000
vt 0.8626 0.9288 0.0000
vt 0.9979 0.9288 0.0000
vt 0.8600 0.9786 0.0000
vt 0.9953 0.9786 0.0000
vt 0.9961 0.9950 0.0000
vt 0.8608 0.9950 0.0000
vt 0.8619 0.9599 0.0000
vt 0.8619 0.9464 0.0000
vt 0.0011 0.0005 0.0000
vt 0.9264 0.0005 0.0000
vt 0.9992 0.9599 0.0000
vt 0.9992 0.9464 0.0000
vt 0.8616 0.9434 0.0000
vt 0.8616 0.9299 0.0000
vt 0.9963 0.9640 0.0000
vt 0.9963 0.9775 0.0000
vt 0.8535 0.9109 0.0000
vt 0.8535 0.9984 0.0000
vt 0.9820 0.7948 0.0000
vt 0.9803 0.7948 0.0000
vt 0.9800 0.6305 0.0000
vt 0.9817 0.6304 0.0000
vt 0.9794 0.6324 0.0000
vt 0.9811 0.6323 0.0000
vt 0.9806 0.7942 0.0000
vt 0.9823 0.7942 0.0000
vt 0.9816 0.7975 0.0000
vt 0.9833 0.7975 0.0000
vt 0.9852 0.7958 0.0000
vt 0.9835 0.7958 0.0000
vt 0.9853 0.7934 0.0000
vt 0.9836 0.7934 0.0000
vt 0.9817 0.7976 0.0000
vt 0.9834 0.7976 0.0000
vt 0.9327 0.8596 0.0000
vt 0.9641 0.8596 0.0000
vt 0.9782 0.6014 0.0000
vt 0.9782 0.7606 0.0000
vt 0.9791 0.6007 0.0000
vt 0.9791 0.7599 0.0000
vt 0.9783 0.6018 0.0000
vt 0.9783 0.7611 0.0000
vt 0.9795 0.6009 0.0000
vt 0.9795 0.7602 0.0000
vt 0.9296 0.0015 0.0000
vt 0.9624 0.0014 0.0000
vt 0.9892 0.5903 0.0000
vt 0.9887 0.5906 0.0000
vt 0.9887 0.7712 0.0000
vt 0.9907 0.7705 0.0000
vt 0.0000 1.0000 0.0000
vt 0.0000 0.0000 0.0000
vt 1.0000 0.0000 0.0000
vt 1.0000 1.0000 0.0000
# 276 texture coords

o brick_wall_column_big
g brick_wall_column_big
usemtl column
f 1/1/1 2/2/1 3/3/1 4/4/1 
f 5/5/2 6/6/2 7/7/2 8/8/2 
f 9/9/3 10/10/4 11/11/4 12/12/3 
f 13/13/5 14/14/5 15/15/5 16/16/5 
f 17/17/6 18/18/6 19/19/7 20/20/7 
f 21/21/8 22/22/9 23/23/10 24/24/11 
f 25/25/12 26/26/4 27/27/13 28/28/14 
f 29/29/15 30/30/16 31/31/17 32/32/18 
f 33/33/19 34/34/7 35/35/20 36/36/21 
f 37/37/22 38/38/23 39/39/24 40/40/25 
f 41/41/26 42/42/26 43/43/26 44/44/26 
f 45/45/27 46/46/28 47/47/29 48/48/30 
f 49/49/31 50/50/31 51/51/31 52/52/31 
f 53/53/32 54/54/33 22/55/34 21/56/35 
f 55/57/36 53/58/32 34/59/37 33/60/38 
f 32/61/39 31/62/40 56/63/41 55/64/36 
f 56/65/41 27/66/42 26/67/43 54/68/33 
f 57/69/8 58/70/23 59/71/24 60/72/9 
f 61/73/13 62/74/4 63/75/44 64/76/45 
f 65/77/18 66/78/17 67/79/28 68/80/29 
f 69/81/7 70/82/19 71/83/46 72/84/47 
f 73/85/8 74/86/48 75/87/49 76/88/9 
f 77/89/4 78/90/50 79/91/45 80/92/13 
f 81/93/28 82/94/29 83/95/18 84/96/17 
f 85/97/7 86/98/19 87/99/46 88/100/51 
f 60/101/52 89/102/53 75/103/49 90/104/54 
f 75/103/49 74/105/48 90/104/54 
f 57/106/52 60/101/52 90/104/54 
f 69/107/52 90/108/54 91/109/55 70/110/52 
f 65/111/52 91/112/55 92/113/56 66/114/52 
f 89/115/53 62/116/52 61/117/52 92/118/56 
f 93/119/57 5/120/52 8/121/52 94/122/58 
f 20/123/52 93/124/57 95/125/55 17/126/52 
f 95/127/55 96/128/56 14/129/52 13/130/52 
f 10/131/52 9/132/52 96/133/56 94/134/58 
f 97/135/56 84/136/52 83/137/52 98/138/55 
f 99/139/57 73/140/52 76/141/52 100/142/58 
f 100/65/58 77/143/52 80/144/52 97/145/56 
f 86/146/52 85/147/52 99/148/57 98/58/55 
f 3/149/59 35/150/20 24/151/11 
f 23/152/10 25/153/12 4/154/60 
f 2/155/61 29/156/15 36/157/21 
f 28/158/14 30/159/16 1/160/62 
f 22/161/34 54/68/33 26/67/43 
f 34/59/37 53/58/32 21/162/35 
f 27/66/42 56/65/41 31/163/40 
f 32/164/39 55/57/36 33/60/38 
f 54/165/33 40/166/25 41/167/63 
f 53/168/32 51/169/64 37/170/22 
f 55/171/36 48/172/30 52/173/65 
f 56/174/41 44/175/66 45/176/27 
f 50/177/67 99/178/57 38/179/23 
f 39/180/24 100/181/58 42/182/68 
f 43/183/69 97/184/56 46/185/28 
f 47/186/29 98/187/55 49/188/70 
f 63/189/44 59/190/24 94/191/58 
f 96/192/56 67/193/28 64/194/45 
f 95/195/55 71/196/46 68/197/29 
f 58/198/23 72/199/47 93/200/57 
f 100/65/58 76/201/52 77/143/52 
f 99/148/57 85/147/52 73/202/52 
f 98/58/55 83/203/52 86/146/52 
f 97/145/56 80/144/52 84/204/52 
f 88/205/51 90/108/54 74/206/48 
f 75/207/49 89/115/53 78/208/50 
f 79/209/45 92/210/56 81/211/28 
f 82/94/29 91/212/55 87/99/46 
f 62/116/52 89/115/53 60/213/52 
f 57/214/52 90/108/54 69/107/52 
f 70/110/52 91/109/55 65/215/52 
f 66/216/52 92/118/56 61/117/52 
f 94/134/58 8/217/52 10/131/52 
f 93/124/57 20/123/52 5/218/52 
f 95/125/55 13/219/52 17/126/52 
f 96/133/56 9/132/52 14/220/52 
f 3/221/59 24/24/11 23/23/10 4/222/60 
f 25/25/12 28/28/14 1/223/62 4/224/60 
f 1/225/62 30/30/16 29/29/15 2/226/61 
f 36/36/21 35/35/20 3/227/59 2/228/61 
f 7/7/71 11/11/4 10/10/4 8/8/71 
f 35/229/20 34/230/7 21/21/8 24/24/11 
f 12/12/3 15/231/72 14/232/72 9/9/3 
f 18/18/6 17/17/6 13/13/73 16/16/73 
f 25/233/12 23/23/10 22/22/9 26/234/4 
f 50/50/67 38/38/23 37/37/22 51/51/64 
f 27/27/13 31/235/17 30/236/16 28/28/14 
f 33/237/19 36/238/21 29/29/15 32/32/18 
f 40/40/25 39/39/24 42/42/68 41/41/63 
f 45/45/27 44/44/66 43/43/69 46/46/28 
f 52/52/65 48/239/30 47/240/29 49/49/70 
f 85/97/7 88/100/51 74/86/48 73/85/8 
f 53/241/32 37/242/22 40/166/25 54/165/33 
f 53/168/32 55/243/36 52/244/65 51/169/64 
f 55/171/36 56/245/41 45/246/27 48/172/30 
f 44/247/66 56/248/41 54/165/33 41/167/63 
f 100/249/58 39/250/24 38/179/23 99/178/57 
f 42/182/68 100/181/58 97/251/56 43/252/69 
f 46/185/28 97/184/56 98/253/55 47/254/29 
f 98/255/55 99/178/57 50/177/67 49/256/70 
f 62/74/4 60/72/9 59/71/24 63/75/44 
f 66/257/17 61/73/13 64/76/45 67/258/28 
f 70/82/19 65/77/18 68/80/29 71/83/46 
f 5/5/74 20/20/7 19/19/7 6/6/74 
f 59/259/24 58/260/23 93/119/57 94/122/58 
f 96/133/56 64/261/45 63/262/44 94/134/58 
f 68/263/29 67/264/28 96/128/56 95/127/55 
f 93/124/57 72/265/47 71/266/46 95/125/55 
f 69/81/7 72/84/47 58/70/23 57/69/8 
f 76/267/9 75/268/49 78/90/50 77/89/4 
f 79/91/45 81/93/28 84/96/17 80/92/13 
f 83/95/18 82/94/29 87/99/46 86/98/19 
f 92/118/56 79/269/45 78/208/50 89/115/53 
f 91/112/55 82/270/29 81/271/28 92/113/56 
f 90/108/54 88/205/51 87/272/46 91/109/55 
usemtl proxy
f 101/273/52 102/274/52 103/275/52 104/276/52 
f 105/275/75 106/276/76 107/273/77 108/274/78 
f 109/273/79 103/274/2 102/275/2 110/276/79 
f 110/273/80 102/274/26 101/275/26 111/276/80 
f 111/273/81 101/274/5 104/275/5 112/276/81 
f 109/276/82 112/273/82 104/274/31 103/275/31 
f 113/275/83 114/274/83 109/273/79 110/276/79 
f 115/276/84 113/275/84 110/273/80 111/276/80 
f 111/273/81 112/276/81 116/273/85 115/276/85 
f 116/273/86 112/273/82 109/276/82 114/274/86 
f 113/275/83 117/275/2 118/274/2 114/274/83 
f 117/275/26 113/275/84 115/276/84 119/276/26 
f 116/273/85 120/273/5 119/276/5 115/276/85 
f 120/273/31 116/273/86 114/274/86 118/274/31 
f 108/274/78 118/274/87 117/275/88 105/275/75 
f 106/276/76 105/275/75 117/275/88 119/276/89 
f 106/276/76 119/276/89 120/273/90 107/273/77 
f 108/274/78 107/273/77 120/273/90 118/274/87 
# 94 polygons - 38 triangles

